<?xml version="1.0" encoding="UTF-8"?>
<svg width="990" height="660" version="1.1" xmlns="http://www.w3.org/2000/svg" xmlns:cc="http://creativecommons.org/ns#" xmlns:dc="http://purl.org/dc/elements/1.1/" xmlns:rdf="http://www.w3.org/1999/02/22-rdf-syntax-ns#">
<path d="m0 0h990v660h-990z" style="fill:#0038a8"/>
<path d="m0 0h990v440h-990z" style="fill:#ffffff"/>
<path d="m0 0h990v220h-990z" style="fill:#d52b1e"/>
<path d="m578.63 329.98c0 46.205-37.432 83.654-83.635 83.654-46.18 0-83.63-37.45-83.63-83.654 0-46.186 37.452-83.611 83.63-83.611 46.204 0 83.635 37.426 83.635 83.611z" stroke-miterlimit="10" style="fill:#ffffff;opacity:.999;stroke-miterlimit:10;stroke-width:3.6864;stroke:#000000"/>
<path d="m535.48 316.99c-2.0316-.0816-2.0436 2.1576-2.0436 2.1576s.0696-.6624.012.0888c-.0384.744.3336 2.556 1.8336 2.7036 1.5828.1392 2.1084-1.7112 2.1216-2.6088 0-.3564-.1164-2.2956-1.9236-2.34" style="fill:#009b3a;opacity:.999;stroke-width:.9852;stroke:#000000"/>
<path d="m442.54 363.44-.7164-1.1868c-.072-.132-.2592-.3504-.558-.6756a.8172.8172 0 0 0-.5544-.2724.9876.9876 0 0 0-.6516.132c-.2784.1692-.4608.3972-.4896.6744-.054.2832.078.672.3924 1.1976l.7248 1.2348zm7.08-.408-9.0996 5.412-2.778-4.668c-.5148-.876-.828-1.572-.9504-2.1216-.1428-.5592-.0744-1.0836.156-1.6044.2304-.5256.648-.9636 1.23-1.3128a3.156 3.156 0 0 1 1.4796-.4572c.51 0 .9756.126 1.4268.3648.2784.1596.6024.408.9552.768-.084-.3888-.132-.696-.1128-.9336.03-.1416.0936-.3744.2208-.7296.1224-.3408.24-.5784.3132-.7296l1.8384-2.928 1.8756 3.18-1.8756 3.1572c-.2352.3984-.378.7056-.3972.9192-.0108.2964.054.5544.1956.8076l.156.258 3.6864-2.1936zm-16.02-7.41-2.778-8.3016 2.142-.72 1.74 5.2032 1.6068-.54-1.6368-4.8288 2.058-.672 1.6164 4.806 1.9704-.6372-1.7784-5.3544 2.2728-.774 2.8224 8.4576zm.2964-16.9-.1116-.7776c-.0732-.648-.2304-1.0656-.4704-1.284a1.1328 1.1328 0 0 0-.8964-.282c-.324.0528-.588.1896-.7896.4176-.21.2532-.2796.672-.192 1.2792l.0888.9348zm-4.116 3.7896-.6312-5.394c-.1272-1.158.0396-2.082.5244-2.7336.5004-.6468 1.2648-1.0356 2.2932-1.152 1.0584-.132 1.9356.096 2.6016.6564.6576.5688 1.0788 1.5168 1.236 2.82l.2004 1.776 3.8952-.4524.3828 3.264zm-.3672-20.64.3384-3.2496 6.282.6756c.6168.0732 1.1952.2388 1.71.4824a3.54 3.54 0 0 1 1.362 1.074c.3624.468.618.9144.7356 1.3968.1608.636.2052 1.4148.102 2.31a11.916 11.916 0 0 1-.294 1.6536c-.132.5976-.3372 1.0896-.5928 1.4688a3.852 3.852 0 0 1-1.0188 1.0308 3.324 3.324 0 0 1-1.2888.5496c-.696.1416-1.2936.1704-1.812.1116l-6.2532-.66.3372-3.2544 6.4152.696c.5784.0576 1.038-.0492 1.3956-.342.3588-.2868.5592-.7044.6276-1.254.06-.5796-.0588-1.026-.3384-1.3716-.2784-.3552-.7104-.5544-1.2936-.6228zm10.523-8.892.564-1.566c.1716-.5304.2208-.9396.1032-1.236a.9804.9804 0 0 0-.642-.5784c-.3144-.108-.5736-.0876-.828.0684-.264.1596-.4908.5004-.672 1.0308l-.558 1.5756zm-3.924-1.3764.4752-1.3284c.1608-.486.2052-.8556.0876-1.104-.0876-.2388-.294-.4284-.612-.5208a.9096.9096 0 0 0-.774.0348c-.2304.1356-.4224.4272-.5784.8952l-.4956 1.3656zm-4.9944 1.7556 2.01-5.7924c.348-.9636.8424-1.6056 1.5084-1.9704a2.5176 2.5176 0 0 1 2.04-.1512c.5772.228 1.0176.5796 1.3224 1.0944.18.3408.294.7884.294 1.308.4164-.66.8964-1.08 1.4304-1.26.5436-.1932 1.1364-.1836 1.7784.0396.504.1752.9264.462 1.26.8412.318.3996.528.8376.6324 1.3332.048.3204.024.7488-.0888 1.2792-.1668.744-.264 1.2156-.348 1.4352l-1.8624 5.3304zm5.3916-13.555 1.71-2.7912 6.8112 4.128 2.652-4.356 2.22 1.356-4.3224 7.1448zm6.9864-10.406 2.1024-2.5044 8.0712 6.8232-2.1072 2.5044zm14.657-5.6856 2.7504-1.176c.3528.7392.5532 1.4436.582 2.1348.024.6804-.108 1.3224-.3912 1.92-.3144.6084-.828 1.1976-1.5336 1.8156-.8976.7296-1.7208 1.206-2.4996 1.4148-.7692.1992-1.632.1512-2.592-.1512-.9264-.306-1.8084-.972-2.6604-1.9692-1.1076-1.356-1.6176-2.6844-1.5048-3.9888.108-1.3272.8232-2.5188 2.1264-3.618 1.0344-.8556 1.9944-1.3032 2.94-1.3764.9216-.0876 1.902.1896 2.886.8076l-1.8072 2.3436c-.2748-.18-.504-.3-.7008-.3396a1.5864 1.5864 0 0 0-.8772-.0108 1.86 1.86 0 0 0-.804.3996c-.5736.48-.8232 1.074-.7392 1.7844.048.5304.3864 1.1484.9744 1.8828.7596.9 1.416 1.404 1.956 1.5072.5676.1164 1.092-.0432 1.5816-.4524.4764-.408.7356-.8364.7452-1.3032.0144-.4968-.1176-1.0356-.432-1.6248m10.7-6.3552-2.7636-2.8596.696 3.924zm1.6464 1.7364-3.312 1.6836.3384 1.794-2.9748 1.512-1.26-11.23 3.18-1.6248 8.346 7.6224-3.0432 1.5564zm12.863-11.026.8136 5.7096.7944-.1164c.6804-.084 1.1568-.234 1.4256-.4236.2604-.2088.4368-.4764.5436-.8952.1176-.3888.1176-.996-.004-1.8432-.156-1.104-.4512-1.8432-.8628-2.1936-.42-.3504-1.0536-.4764-1.896-.3504zm-3.5568-1.9116 4.8024-.6912c.9456-.126 1.7148-.1164 2.3316.0588.6372.18 1.1616.4716 1.6224.9.4464.4272.804.948 1.0584 1.5564a7.428 7.428 0 0 1 .5484 1.998c.1716 1.1088.1716 2.004-.01 2.6412a4.464 4.464 0 0 1-.8328 1.716c-.402.4728-.8484.828-1.3428 1.0272a7.3344 7.3344 0 0 1-1.896.5784l-4.812.6768zm14.392-2.0508 8.7264.648-.162 2.2512-5.4636-.408-.1272 1.6776 5.0676.3744-.1824 2.1444-5.0412-.36-.1476 2.0628 5.6208.4176-.1764 2.3832-8.8944-.6564zm13.446 1.2348 3.1416.876-2.172 7.6848 4.9056 1.386-.7152 2.49-8.052-2.28zm17.84 11.732.6756.438c.5196.3444.96.4908 1.2792.456a.9816.9816 0 0 0 .78-.486c.1752-.2676.24-.5688.2004-.8952-.0636-.3108-.3528-.6264-.8628-.9624l-.78-.5256zm-.2604-5.5692 4.5432 2.9964c.984.6468 1.5624 1.3764 1.74 2.1636.1896.798 0 1.6344-.5844 2.5008-.5676.8796-1.3032 1.3956-2.1756 1.5456-.882.1416-1.848-.1308-2.9496-.8556l-1.494-.9924-2.1468 3.2736-2.7396-1.8144zm11.472 16.122 1.842-3.5256-3.498 1.8924zm-1.1172 2.1012-2.652-2.6064-1.596.876-2.376-2.3352 4.884-2.256 5.3808-2.4864 2.5284 2.5008-4.596 10.334-2.4312-2.412zm9.8208 4.5864.7452 1.1772c.0888.1176.2496.3456.5832.6564a.87.87 0 0 0 .5688.2484.9096.9096 0 0 0 .6264-.156c.2796-.18.4368-.4032.486-.69.0384-.2724-.108-.6816-.4368-1.1772l-.7548-1.206zm-7.0704.6276 8.9136-5.6904 2.9256 4.5864c.5436.846.8868 1.542 1.0536 2.082.1224.54.0828 1.0848-.138 1.6044-.216.5352-.612.978-1.1712 1.344-.504.3204-.99.5004-1.4892.5004-.4752.0288-.96-.0924-1.4364-.2928a5.4756 5.4756 0 0 1-.9648-.7536c.0936.3888.1524.7056.1416.924a5.7804 5.7804 0 0 1-.186.7296 3.8628 3.8628 0 0 1-.318.7488l-1.7256 2.9868-1.9992-3.1176 1.794-3.2004c.24-.4284.3576-.7344.3576-.948.01-.288-.0348-.5592-.2256-.804l-.1416-.2424-3.6264 2.31zm12.497 14.239 3.1704-2.3928-3.9636.2196zm-1.9248 1.416-1.2696-3.4968-1.8036.126-1.152-3.1368 11.3.132 1.2204 3.336-8.58 7.3536-1.176-3.2292zm5.0604 11.246 2.1756-.2868.6312 5.04-4.4736.54c-.7548-.876-1.332-1.6596-1.6416-2.3748-.3432-.7092-.564-1.5708-.69-2.5776-.162-1.2444-.0792-2.286.2688-3.1224.3132-.8364.8724-1.5324 1.656-2.082.7896-.5196 1.7208-.8652 2.8032-.996 1.1424-.1512 2.1756-.0348 3.0768.3396.9024.36 1.6272.9684 2.1912 1.824.4356.6768.7248 1.6056.8616 2.8116.162 1.152.162 2.0328.01 2.6316a3.1632 3.1632 0 0 1-.798 1.56 4.092 4.092 0 0 1-1.554 1.0608l-.9504-3.0492c.378-.1896.6564-.432.8232-.7788.1716-.33.216-.7488.1716-1.206-.1176-.72-.4116-1.254-.9504-1.614-.5532-.36-1.368-.4728-2.436-.3408-1.1364.1404-1.9056.4668-2.352.9384-.42.4968-.5772 1.1328-.4992 1.8924.0396.36.1464.696.2844 1.0068.1512.33.372.666.6756 1.0848l.996-.1368zm6.6936 15.856-.372 3.2388-6.252-.7056a5.3112 5.3112 0 0 1-1.7256-.492 3.8136 3.8136 0 0 1-1.3524-1.074c-.3576-.456-.6024-.9192-.72-1.386-.1524-.6756-.192-1.4352-.0888-2.3244.0696-.5064.168-1.0656.2892-1.6632.1428-.5988.3528-1.0848.618-1.464a4.14 4.14 0 0 1 1.0092-1.0176c.4608-.2868.882-.4668 1.3032-.54.6864-.1308 1.2984-.174 1.8132-.096l6.2628.714-.372 3.2304-6.4056-.7356c-.5832-.0624-1.044.0396-1.4064.3264-.3528.2916-.564.7008-.6216 1.26-.0636.5736.0444 1.026.3276 1.3716.276.3504.7056.5592 1.2792.6468zm-9.732 12.035 3.984.1416-3.216-2.3448zm-2.3628-.1212 1.206-3.5064-1.476-1.056 1.098-3.156 8.6928 7.2228-1.1952 3.3792-11.266.2772 1.1076-3.2388zm5.8368 9.7344-1.8384 3.1272-4.164.0144 1.9932 3.6576-1.8276 3.0888-3.2136-6.6588-3.8124-2.2464 1.6752-2.826 3.8076 2.262z" style="opacity:.999;stroke-width:1.2"/>
<path d="m565.03 329.98c0 38.69-31.351 70.045-70.022 70.045-38.682 0-70.033-31.356-70.033-70.044 0-38.662 31.351-70.012 70.032-70.012 38.672 0 70.024 31.35 70.024 70.01z" stroke-miterlimit="10" style="fill:none;opacity:.999;stroke-miterlimit:10;stroke-width:1.4748;stroke:#000000"/>
<path d="m547.12 329.74c0 28.799-23.323 52.124-52.108 52.124s-52.117-23.326-52.117-52.124c0-28.77 23.333-52.102 52.116-52.102 28.786 0 52.11 23.332 52.11 52.102z" stroke-miterlimit="10" style="fill:none;opacity:.999;stroke-miterlimit:10;stroke-width:1.4748;stroke:#000000"/>
<path d="m495.01 310.99 4.3764 12.529 13.244.2964-10.554 8.0256 3.8364 12.698-10.903-7.548-10.908 7.548 3.8172-12.698-10.57-8.0256 13.27-.2964z" style="fill:#fedf00;opacity:.999;stroke-width:.6024;stroke:#000000"/>
<path d="m519.07 365.7c-.4416.3696-2.22.5688-2.6904.648-.4752.0624-2.3424.0816-3.132.1104-.4356.03-1.2732.1512-1.7088.1512-3.828-.4368 6.2184-.3756 7.5312-.9096m-10.031-2.9616c.2496-.4476 1.5048-3.24 1.956-4.032.4596-.7788 1.4988-2.856 2.1204-3.72.3192-.468 1.5684-1.824 1.8672-1.2168-2.1756 1.8804-3.8904 5.1624-4.8048 7.3704-.1176.2376-.8328 1.4664-1.0968 1.788-.2556.3156-.1512.912-.552.96-.4224.0528-.1272.1296-.1272.1296s.3624-.8076.6372-1.2792zm14.431 2.136s-1.7304-.2592-2.8032-.6384c-1.068-.36-2.862-.636-4.3908-.5976-1.5144.0192-2.9004.4764-4.1352.948-1.23.4572-2.8224.4956-2.8224.4956s-.9024.1416-.48-.0672c.4008-.1992 1.7976-1.2888 1.7976-1.2888l.9024-1.236c.2592-.072 4.836-6.0768 4.338-7.6884.7008-1.1868 1.5216-3.3036 1.2132-3.672-.1464-.1512-3.5628 1.0836-4.3116 1.764-.8676.75-1.4808 2.3112-1.74 3.2112-.2544.894-1.5684 1.6332-1.5684 1.6332-1.068.768-1.842 3.2004-2.2044 5.19-.3672 1.9644-5.208 3.0528-5.208 3.0528s-1.3428.5016-.1512.8808c.2052.0576.7368.9564 1.164.9708.5916.0684 3.5976-1.218 4.0632-1.116a35.664 35.664 0 0 1 3.0276.828c1.1472.3888 2.0928.588 2.8956.2916.8136-.2928 1.9752-.18 2.8476-.01.858.1848 1.818.1068 2.3712-.0636.5928-.18 2.1516-1.0464 2.1516-1.0464s1.686-.7296 2.6604-1.1868c.9756-.456.3828-.6564.3828-.6564" style="fill:#009b3a;opacity:.999;stroke-width:.7536;stroke:#000000"/>
<path d="m510.32 370.72s-6.6648-3.4872-7.0224-3.57c-.21-.0288-3.024-1.5804-4.3116-1.98-.9312-.3012-2.2152-.3792-2.676-.3504-1.0968.078-2.8884.5616-2.8884.5616l1.656.6768s1.554.7632 2.3136 1.1724c1.0872.5736 1.1364 1.2732 1.1364 1.2732l6.0348 2.6544 1.224.8796s1.1136-1.536 4.5336-1.3176" style="fill:#009b3a;opacity:.999;stroke-width:.6024;stroke:#000000"/>
<path d="m517.03 356.88c2.0964-1.8696 3.1212-4.5276 4.8456-6 .2796.2004.2796.534-.0612 1.1232-.3264.5796-.7596.78-.9504 1.0824-.3516.4716-1.4016 1.344-1.686 1.8672-.252.4968-.5784 1.1904-1.4928 1.7184-.9096.5436-.624 1.4088-.7008 1.7724-.072.3996-1.4748 1.404-2.1516 2.6448-.1284 1.2936-.1872.7512-.972 1.2108 1.428-2.1528 2.1792-3.54 3.1692-5.4192m-4.7112 5.916c-.1344.2832-4.2684 2.6304-2.976 2.2824 1.2852-.3384 5.1048-1.7172 6.1896-2.1996 1.3272-.5796 2.124-1.7952 3.12-2.784 1.0176-1.0104 4.164-4.0164 4.7076-5.1756.5316-1.194 1.0164-2.8536-1.1172-6.582 0 0-.3312.7128-1.1256 1.41-.786.7128-1.9584 1.5024-1.9584 1.5024l-1.368 1.2924s-4.8312 8.8752-5.472 10.255" style="fill:#009b3a;opacity:.999;stroke-width:.7944;stroke:#000000"/>
<path d="m529.1 359.68s-2.646-.2376-2.8764-.2376c-.2496 0-1.7004-.2004-3.8076-.2004-2.088 0-2.8716.7248-3.42 1.308-.5928.6528-2.2392 2.16-2.2392 2.16l.8868-.078c2.1168-1.6488 3.7632-1.044 4.4196-1.092.6864-.024 1.512.0432 3.63-.7068 2.1504-.7536 2.0244-.048 1.7892.024a11.158 11.158 0 0 1-3.192.6444c-1.596.0876-2.9976.3972-3.624.3972-.6324 0-5.2908 1.2744-5.2908 1.2744s5.0412.2952 5.5848.4752c.54.2196 1.3872.1176 2.088-.2184 1.9308-.8904 2.8032-1.0608 3.5964-1.2396.7992-.156 1.7496-.696 1.7496-.696s.51-.3216.9804-1.176c.4848-.876-.276-.6384-.276-.6384m2.4744-13.811c.318-.7884 1.1124-2.6412 1.956-3.3708.5136-.4476 1.4004-.6564 1.8708-.8556.2004-.0684 1.6476-.138-.1608.3588-.75.1992-1.7628.6432-2.2128 1.398-.6324 1.7544-1.1844 3.2832-2.358 4.404-.8628.9048-1.4088 2.0832-1.4088 2.0832l-.924.3204c1.6944-1.038 2.43-2.9616 3.2376-4.338zm8.1924-.9876c-.9648.3216-1.3032.588-1.3032.588-2.16.648-3.0444 2.004-3.99 3.108-.48.5784-1.1568 1.0104-3.4356 1.9872-2.082.8952-3.6924 2.2776-3.732 2.2776 0 0-.66.1356-.534.456.0492.1524.612.03.612.03s4.29-.612 6.078-1.7004c1.1424-.7152 1.788-1.236 2.8704-2.9088.4848-.7392 1.0284-2.13 1.0536-1.236.084 2.3736-3.6024 4.674-5.208 5.3844-.8592.3648-2.0052.516-3.504.7632-1.4808.2724-2.382.1908-2.274-.1356.1512-.4716.324-.5688.7152-1.0356.7056-.8412 2.4108-1.1388 3.6648-1.728 1.4856-.6648 2.892-1.644 3.5976-2.4792.72-.846.9696-1.158 1.1652-1.872.5496-1.8684.5784-2.904 1.0932-3.5712 1.812-2.232 2.0772-2.952 2.166-3.948.0192-.2292-.9408.5292-1.44.8064-.9756.5784-1.338.5784-3.3372 1.0992-2.0292.5064-1.9848 1.8144-2.2992 2.4324-.0924.2472-.9156 1.2744-1.308 1.464-.3924.1992-1.3572 1.5948-1.7148 2.412-.264.5976-.7356 1.026-1.1124.978-.396-.0732.7596-4.3968 1.014-5.112.2748-.7104.3288-2.0964.3288-2.5632 0-.4476.0156-1.6248-.768-1.7568-.78-.132-.816-1.2084-.816-1.2084-1.8756 1.6248-.828 4.488-.6264 6.1848.2016 1.6824-.3864 4.7952-.3864 4.7952 1.812.774.3864 2.976-.1764 3.6876-.5928.7236-1.716.8556-2.22 1.4928-.534.6564-4.3308 5.9436-4.3308 5.9436l4.7232-1.338s.4404.078-.2652-.456c-.7152-.5124.2304-2.496.8376-2.982 1.1616-.9096 2.73-.2484 2.73-.2484s2.19.336 4.8756-.7296c2.244-.8856 3.2088-2.3196 4.272-3.3996.5784-.588 1.6368-2.5392 2.304-3.696.402-.6672 1.122-1.9368.6804-1.7856" style="fill:#009b3a;opacity:.999;stroke-width:.7536;stroke:#000000"/>
<path d="m526.38 357.58c.36-.1464.414-.2112 1.0752-.9324.6504-.72.0768-1.9356-.9288-1.8864-.492.0324-1.0152-.0816-1.9824 1.2192-.9336 1.302.4476 1.7784.972 1.8324.2244.012.5196-.0864.864-.2328" style="fill:#009b3a;opacity:.999;stroke-width:.84;stroke:#000000"/>
<path d="m523.94 349.34c-.6252 1.0464-.96 2.2488-.468 2.6196.1104.0612.546.444.9144.444.3624 0 1.3896-.4932 1.9752-1.3968.5868-.876 1.0668-1.8384-.1332-2.436-1.0884-.5388-1.836-.0348-2.2884.768" style="fill:#009b3a;opacity:.999;stroke-width:.858;stroke:#000000"/>
<path d="m527.52 336.55s.0984-.1608-.3132-.588c-.6516-.6672-1.4676-1.8564-1.4676-1.8564-1.2984.7104-1.7304 2.1444-1.7304 2.7144 0 .5928.2208 1.8816.0204 3.1956-.0696.4464-.1428.9576-.7848 2.5824-.6564 1.6044.0936 3.078.24 3.5988.1128.516.648 2.1204.648 2.1204s.5088-.3264.6804-.3648c.2004-.054.8916-.024.8916-.024s.7824-1.4136.8112-2.2008c.0144-.5796-.078-1.5612-.3528-3.0696-.3816-2.1936-.3576-2.82-.0984-4.0464.2604-1.2456 1.4556-2.0628 1.4556-2.0628" style="fill:#009b3a;opacity:.999;stroke-width:.7536;stroke:#000000"/>
<path d="m529.45 338.75s.7368-.1764 1.1076-.8448c.468-.8064.3456-1.662.3456-1.662-1.1424-2.2128-2.676-.4272-2.676-.4272-1.374 2.8104 1.2216 2.934 1.2216 2.934" style="fill:#009b3a;opacity:.999;stroke-width:.828;stroke:#000000"/>
<path d="m533.34 334.69c-1.704.0888-2.5416 3.1512-2.5416 3.1512s-.276.756-1.1844 1.3416c-.966.5964-.396 1.4544-.396 2.9796 0 1.524-1.0632 4.2192-1.0632 4.2192l-.396.9144s.0372.6864.6588-.5592c1.056-2.0964 2.214-1.5876 2.6496-3.8436.276-1.6776 3.054-2.2116 3.054-2.2116l-.7812-.1464c-2.8872-1.3524.1668-4.7268.66-5.3244.5244-.5964 1.0236-.5964-.66-.5208" style="fill:#009b3a;opacity:.999;stroke-width:.984;stroke:#000000"/>
<path d="m532.85 338.33c-.78 1.6728 1.44 1.7544 1.9524 1.4616.2064-.12.6756-.6768.6756-.6768.9-1.2936.0768-2.1696-.3924-2.2944-.4524-.1512-1.4172-.2652-2.2356 1.5096" style="fill:#009b3a;opacity:.999;stroke-width:.8376;stroke:#000000"/>
<path d="m528.64 331.82c.5832 1.0848 2.2104 4.104 2.592 3.9156.24-.1164.0492-.7344.0492-.7344s-.048-.8172-.3132-1.8048c-.2604-.996-.1968-2.2716-.7164-3.0888-.504-.816-1.7136-1.7844-2.1888-3.0732-.4704-1.2936-.102-3.7404-.0624-4.0416.048-.282.1908-.0972-.06-.3888-.2544-.3168-2.3112-1.4112-2.3112-1.4112s.12.798.0708 2.2428c-.0192.3504-.1176.7584-.1716 1.3668-.048.5784.3 1.308 1.1424 2.9712.9792 1.926 1.4496 3.108 1.9692 4.0464m12.336-14.363s-.5928.9876-.804 1.206c-.2196.2196-3.5712 3.0984-3.762 3.2196-.162.1272-1.9116.6864-3.504 4.9908-1.5972 4.29-.906 8.3016-.906 8.3016l.774-.096.132-.42s.2604-1.4244.4608-2.5044c.2208-1.0644 1.4148-2.5536 2.208-3.6528.756-1.0752 1.3656-2.6208 1.3656-2.6208.8976-1.8096 1.3296-3.4272 2.2188-4.6884.036 1.5024-5.676 10.741-6.288 13.885l1.692-.258c1.3512-1.2348 3.12-3.828 4.3164-5.5008 1.2048-1.6776 1.716-4.2984 1.9356-5.4612.21-1.1484.162-6.4008.162-6.4008" style="fill:#009b3a;opacity:.999;stroke-width:.7536;stroke:#000000"/>
<path d="m529.58 318.42c-.8628-.798-1.5336-1.0368-1.5336-1.0368s.2052 1.566.2052 2.52c0 .9576.084 2.5632.0348 3.42-.0348.8544-.4608 2.2704.1464 3.6564.6228 1.3668 1.3236 2.0628 1.818 2.9232.4512.8412 1.2768 5.2164 1.2768 5.2164s-.3012-5.916-.042-7.59c.24-1.644.3192-4.2072-.048-5.4912-.3828-1.2888-1.0152-2.8008-1.8576-3.618m3.9432-5.7756c.2592-.5064.8676-1.5516 1.122-3.1428.0924-.6756.156-1.77.132-2.5284-.0192-.5064-.2208-1.386 0-1.4448.1956-.048.0324.2736.144 1.0236.054.2676-.1296 1.008-.1644 1.956-.0444.7584-.0744 1.392-.4128 2.418-.294.9048-.0276 1.908-.2088 2.19-.1956.2868-.7152 1.3716-.7152 1.3716s-.318.876-.264 1.6728c.0288.816.078 1.698.078 1.698s.3768-.7008 1.2204-.8172c0 0 .1908-1.368.1908-1.7952 0-.4284.5484-3.2292.828-4.086.3816-1.254.6516-3.438.0444-5.9724-.168-.6852-.2892-2.8308-.2892-2.8308s-.8088.648-1.2888 3.0936c-.1476.744.1668 2.7384.0432 4.8636-.048 1.1724-1.1724 5.9232-1.3248 6.2196" style="fill:#009b3a;opacity:.999;stroke-width:.7536;stroke:#000000"/>
<path d="m533.53 312.65c-.0396.072-.054.102-.054.102s.0336-.03.054-.102" style="fill:#009b3a;opacity:.999;stroke-width:.7536;stroke:#000000"/>
<path d="m530.34 300.31c.432 0 .432.4668.3432.8364-.0684.3792-.0588 1.0848-.0588 1.23 0 .1656.1812 1.1724.324 1.698.156.54.426.7092.3084 1.794-.0792.6816-.78 1.4832-.534 2.6412.132.6084.5676 1.2456.7836 1.77.1812.3648.0828 1.2564.132 1.986.0192.7092.4116 1.1904.4116 1.1904s-.4848.9048-.6468-.228c-.1764-1.2996-.2352-1.878-.4848-2.466-.4068-.9636-.78-2.6964-.1476-4.0332.108-.258.192-.738.192-1.308 0-.5784-.3564-1.5672-.4248-2.1804-.06-.486-.0204-1.512-.0204-1.8828m-2.2644 5.4396c.102.7344.3372 1.152 1.1652 2.748.2556.5256.834 1.8684.9216 2.2956.1032.4284.192.9444.192 1.0752 0 .1416.0924 1.1484.0924 1.1484v.4176s-2.2932-1.3368-3.2976-2.052c-.9996-.72-2.136-1.7076-2.862-2.3052-.8232-.6768-2.784-3.0012-2.808-4.8636l-.9012-.8172s-.6864 4.1388 2.5572 6.8184c.936.768 1.956 1.6152 4.1364 2.6016 2.1852 1.008 1.8984 1.9092 2.8104 3.8448.8964 1.9452 1.458 3.0648 1.5708 3.6144.078.588-.2484 8.8572-.2484 8.8572l.078.75s1.998-7.6596 2.958-8.5152c0 0-1.9056-.2928-1.7544-3.288l-.3336-1.9752s-.3816-2.3736.3336-3.8472c0 0 .8484-2.7.5592-5.034-.1812-1.3956-.246-1.8132-.4164-3.1512-.2604-2.082-1.0932-5.058-1.1868-5.418-.2844-1.0452-.3816-1.206-.7152-2.0328-.0984-.2916-.2844-1.2552-.5928-1.2696-.1764-.01-.4464 1.2396-.4464 1.2396s-.4008 1.362-.4848 1.7316c-.2592 1.0992-.8676 2.0232-1.146 4.494-.0492.4476-.0984 1.6536-.1524 1.8144-.0288.1368-.0876.846-.0288 1.1184" style="fill:#009b3a;opacity:.999;stroke-width:.7536;stroke:#000000"/>
<path d="m529.96 317.24s-.3336-.7392-.672-1.1184c-.6804-.8028-1.596-1.4832-4.2036-2.7576-2.5968-1.2936-3.2832-3.42-4.6068-4.2948-.6072-.4188-1.7832-.618-1.7832-.618s1.1568 1.5912 1.4304 2.1408c.3528.6996.4368 1.176 1.8672 2.5092 1.4208 1.338 3.156 1.8048 4.2732 2.136 1.578.4908 3.6948 2.004 3.6948 2.004m-8.1852-12.292c.0696.2088.7392 2.496 2.1456 4.272 2.1504 2.718 6.2916 4.6596 6.2916 4.6596-.3876-1.692-1.062-3.648-1.596-4.5144-1.8828-3.0396-6.8556-4.5288-6.8556-4.5288s-.0876-.1164.0144.1116m5.9364 1.2816c1.1136-2.4396-2.2128-4.77-3.1512-6.4692.348-.2772.7596.4476 1.1412.9288.5448.7248 2.0784 2.82 2.0784 2.82l.4752-2.232-3.9612-3.6036c-.048.5244-1.272.9552-1.272.9552-.5928 3.336 4.6896 7.5996 4.6896 7.5996" style="fill:#009b3a;opacity:.999;stroke-width:.7536;stroke:#000000"/>
<path d="m520.81 300.59c-.9552.4272-1.2936.4272-1.2936.4272l.5328 1.4136.3096.384s1.2444 1.8 1.9692 2.0244c.3036.1116 1.4364.3108 2.5728.7968 1.4304.6084 3.7656 2.6508 3.7656 2.6508s-3.8844-4.38-5.3736-7.6644l-.5016-1.8924-1.4076.0936s.3864 1.3284-.5736 1.7664" style="fill:#009b3a;opacity:.999;stroke-width:.7536;stroke:#000000"/>
<path d="m506.28 297.78c.4452.3984 1.176 1.0068 2.112 1.566.8568.516 3.3264 1.9692 5.1744 2.3196.432.0684 2.7528.36 2.7528.36.0924-1.0164 1.1952-1.104 1.1952-1.104l-3.2868-.36c-2.6508-.1968-4.668-1.3044-6.2376-3.078 2.106 1.2768 5.1336 3.288 7.5876 3.18 10.075-.9912-3.036-1.2396-4.1724-1.9692-1.206-.744-2.2344-1.98-2.2344-1.98l-2.9544-.132s-1.452-.0912.0636 1.1976" style="fill:#009b3a;opacity:.999;stroke-width:.7536;stroke:#000000"/>
<path d="m518.14 303.53c.6516-.048 1.1076-.1704 1.2552-.8844.132-.798-.1716-1.3764-1.1328-1.5864-.534-.132-1.47-.1596-1.8516.7884-.4164.972 1.0968 1.596 1.0968 1.596s.2892.126.6324.0864m1.1292-5.7756c-.852 0-1.1412.696-.96 2.052.2256 1.368 2.3172.7692 2.3172.7692l.3876-.1992s.2844-.2196.1272-1.308c-.1476-1.1148-1.014-1.314-1.872-1.314m3.426.96h-.0336c-.0156.01.0336 0 .0336 0" style="fill:#009b3a;opacity:.999;stroke-width:.7536;stroke:#000000"/>
<path d="m522.66 298.7c.024-.01.0828-.0396.3036-.102.4356-.1656.876-1.212.876-1.212.2208-1.4148-.792-1.764-.792-1.764-1.7064-.3408-1.7508 1.1568-1.7508 1.1568-.4704 1.95 1.1124 1.9308 1.362 1.92m-7.5948-6.6972c.0948.648 1.0152 1.5864 1.158 1.7472.1656.1452 1.3428 1.3716 1.74 1.92.396.5508 1.716 3.0432 1.716 3.0432s.2292-.0384.3276-.228c.2304-.3888-.8832-3.408-.996-3.6168-.408-.9168-1.074-1.6008-1.7448-2.316-.156-.1008-.7056-.8064-1.308-1.5648 1.1928 1.5264 4.2504 5.8656 5.1516 7.794 0 0-.1092-2.0556-.222-3.1596-.3816-3.2196-1.2204-4.2168-1.4892-4.6836-.4752-.87-1.68-1.716-2.544-2.0136-.8616-.312-1.8816-.7392-2.9736-1.0896-1.128-.3444-.2604.672.156 1.548.5196 1.0356.936 1.9644 1.0296 2.6208" style="fill:#009b3a;opacity:.999;stroke-width:.7536;stroke:#000000"/>
<path d="m510.86 297.3c1.1124.9432 1.6116 1.6008 3.9192 1.9404 2.328.3648 2.5236.21 2.5236.21s1.2072-.5832.594-1.0944c-3.42-1.5036-6.6576-3.294-8.3016-5.3064 0 0 .2844-.2772 1.47.9096.6864.696 1.1472 1.0452 1.5684 1.3716 1.2444.87 1.7832 1.1184 3.024 1.794.66.36 2.3124.7488 2.3124.7488s.2352-.5004.4452-.5592c.2016-.048-.1272-.8328-1.5636-1.9956a11.453 11.453 0 0 1-2.0964-2.2764s-1.7004-.372-3.5424-.6792c-1.3728-.2184-3.9552-2.2224-3.9108-1.6776.048.5592.3876 2.2956 1.0836 3.3996.6996 1.1088 1.3668 2.2428 2.4744 3.216" style="fill:#009b3a;opacity:.999;stroke-width:.7536;stroke:#000000"/>
<path d="m491.64 366.89c-1.008.2964-8.5716 3.1368-8.5716 3.1368l-2.112.846c2.916-.6564 5.1504.8124 5.1504.8124l8.424-3.9s-.024-.1272-.234-.2784c-.2208-.15-1.6368-.924-2.6568-.6168" style="fill:#009b3a;opacity:.999;stroke-width:.6024;stroke:#000000"/>
<path d="m480.64 371.12c-.0564.048-.1128.2484.0336.312.42.2328.3072.3252 2.2164.5544 1.9248.2088 3.18-.156 3.5088-.5208.3864-.4224-4.7688-1.2108-5.76-.3456" style="fill:#009b3a;opacity:.999;stroke-width:.6444;stroke:#000000"/>
<path d="m468.53 343.92-.3492-2.364s-.4416-6.3924-1.1664-7.674c-.1392-.2844-.0768-.948-.5376-.9588-.882-.066-.882 2.0124-.9888 3.8964-1.434 9.5004 6.1428 16.754 6.1428 16.754z" style="fill:#009b3a;opacity:.999;stroke-width:.8364;stroke:#000000"/>
<path d="m506.03 372.07s-.7944-.1776-.2916-.798c.4824-.5904 1.9152-.906 2.202-.906.282-.012 1.086.0576 1.6848.2244.6036.1488 1.4376.6816 1.194 1.0668-.2556.3672-1.0716.8256-2.1876.8256-.9564 0-1.4472-.024-1.8684-.144-.408-.1548-.7332-.2688-.7332-.2688" style="fill:#009b3a;opacity:.999;stroke-width:.7704;stroke:#000000"/>
<path d="m497.81 367.55s-2.6016-1.1964-5.0664-2.4024c-3.2496-1.5864-7.1544-3.7896-9.8736-7.8312-3.4056-5.004-6.366-7.6848-7.0812-8.2236-.7356-.54-.8424-.7392-1.1124-.36-.2448.33-.0732.6168.132.9672.7008 1.1388 2.4216 3.2784 3.0384 4.4268 1.0632 2.052 3.264 4.2936 3.2436 5.622 0 .1848-.642-.132-.642-.132s-5.1492-1.764-7.236-8.004c-1.5204-4.524-.8736-5.8524-1.2264-8.1132-.6024-4.0176-.7248-4.344-2.7144-8.8476-.054-.1116-1.2156-1.9944-1.3716-1.5756-.216.54.1956 2.5536.1956 2.5536l.2112 2.3196s-.168 5.1504-.168 5.4624-1.2972 3.5256 4.2144 8.9292c0 0 .084.9192-.6564.1116-.5244-.5784-4.4688-3.6084-5.6688-8.5932-1.236-4.986-1.416-9.9756-.48-12.048.8472-1.872 2.5476-6.4488 1.8228-10.447-.084-.4176-.2016-1.644-.4656-1.3224-.1128.156-.6084 2.1792-.9072 2.88-.4164.9576-1.0632 1.9008-1.2636 2.562-.3876 1.1232-2.2884 2.8596-1.9164 6.0552.4212 3.672.6612 4.2456 1.1028 5.5548.1512.4764.5196 1.692.2796 1.8144-.2208.1164-.9996-1.4544-.9996-1.4544s-3.4896-6.858-1.338-12.422c2.1756-5.5392 7.6344-10.793 7.6344-10.793s4.434-3.6768 5.3364-4.5324c.3528-.3312.2688-.5784.1512-.54-1.1016.2772-9.6336 2.0424-12.632 12.208 0 0-.156.4284-.3768.3216-.2748-.1224 0-.5988 0-.5988s1.8768-7.2072 7.1436-10.476c5.748-3.5844 5.0724-3.06 6.9732-4.188 1.1964-.744 2.2788-1.74 3.6168-3.954.1368-.2472.6804-1.536.6072-1.7556-.0588-.2184-.318.0828-.4404.4476 0 0-1.6272 2.514-4.0632 3.36-2.4444.8472-4.4292-.36-6.8844 2.3544-2.46 2.7288-4.4148 6.5076-4.4148 6.5076s-.642.978-.7836.948c-.27-.0816.132-1.0404.132-1.0404s3.2832-6.9648 5.9196-8.3796c2.64-1.4256 4.992-2.7924 6.492-3.9492 1.824-1.4304 4.9644-4.932 6.096-6.138.24-.258 1.926-1.9656 2.298-2.52.2256-.3012.7596-.7392.672-.816-.24-.18-1.8384.588-1.8384.588s-8.6952 2.3964-14.105 10.567c-.2496.3792-.8448 1.1508-1.164 1.476-.5772.5988-.8664 1.5972-.8664 1.5972-.3528-.2916 3.0576-4.5552 3.0576-4.5552l.5976-2.7576s1.0092-4.1436 3.132-7.068c.21-.2664 1.464-1.5312 1.6752-1.794.42-.456-.7992.3996-.5832.2088 0 0-8.1096 5.8224-8.1096 13.157 0 1.3176-.8184 2.52-1.9512 4.158-1.3224 1.902-1.764 3.0696-2.3364 5.9004a231.49 231.49 0 0 1-.7452 3.564s.078 1.0464-.2604.9684c-.3528-.078-.2292-.9432-.2292-.9432s.828-5.4672 1.416-7.1496c.5724-1.6344.9504-2.748.9504-2.748s-.3384-4.11.5736-6.3624c.774-1.9644 2.7336-4.5516 3.0372-5.1984.132-.282 1.0392-2.1252 1.2936-4.2264.0348-.282-.186-.048-.5532.7728-.8916 2.0088-1.6368 2.5344-3.102 4.4256 0 0-3.7584 2.724-5.1204 10.826 0 0-.0444 3.0204-.504 7.7532-.3336 3.468-.0492 6.7164.342 8.6724.2496 1.1964.726 1.206.432 1.3512-.1824.0924.1164.0156-.3096-.888-.5196-1.0848-.918-2.754-.918-5.0604 0-4.2264.3672-7.62.3672-7.62s.276-6.8292-2.556-9.9084c-.1368-.1596.4956 1.3812.78 2.9184.348 1.9068-.2844 4.5528-.4704 5.5836-.1812 1.0356-2.0688 5.55-1.4016 9.786 0 0 1.596 7.1832 3.6552 10.666 0 0 1.2804 1.5.1476.0936-1.122-1.4052-3.426-6.996-3.6264-7.4712-.1764-.4572-1.8276-3.936-3.3816-5.3508-.804-.7488-3.0132-2.076-3.0132-2.076s-1.2-.9144-.2892.3c.72.96 1.686 2.6808 2.1456 3.4296a40.243 40.243 0 0 1 2.5488 4.824c.7392 1.626 2.46 6.4068 2.46 6.4068l1.1004 3.0324s1.8444 1.0236 2.8488 2.142c.8232.9048 2.5284 2.982 3.9444 6.678.6372 1.6344 1.908 3.132 1.908 3.132s-.2688.5184-1.4016-1.44c-1.116-1.986-2.2104-5.7096-4.9008-8.6076-2.0436-2.2236-7.542-4.4652-7.542-4.4652s3.5328 6.1572 4.41 7.2564c1.4844 1.7604 3.6312 4.2312 4.1844 4.884.5736.666 3.8964 4.77 4.386 5.4276.774 1.026 1.284 1.4784 1.6908 1.896.876.9336 3.4728 2.6364 3.6744 2.904.0384.2724.09.048-.1296-.1128-1.152-.6864-2.5272-1.7712-3.948-2.6952-1.416-.9384-6.8844-3.2724-10.568-8.3496-.8724-1.5024-1.2888-2.1-1.5828-1.9452-.4512.2388 2.4792 9.936 8.5068 13.02 0 0 6.6492 2.9568 8.124 3.8472.8088.486 2.4408 1.206 3.1956 1.8144.4308.3552-.3924.336-.4464.3252-3.5328-.276-8.604-.744-11.717-2.5488 0 0-1.3368-.9384-.24.3804.8724 1.02 2.5284 3.5352 5.724 4.9512 3.1992 1.404 7.8504 2.2224 9.5508 2.31 1.6704.0924 7.6284.1212 8.7708.492 1.116.378 3.018 1.596 4.1064 1.9464.9888.3204 3.9732 1.464 3.9732 1.464s.8976.492 1.3776.666c.5388.2148 2.7744.1956 2.9316-.2232.1512-.3744-.6384-.9456-.6384-.9456" style="fill:#009b3a;opacity:.999;stroke-width:.6024;stroke:#000000"/>
<path d="m536.45 317.05c.6756.2472.9744 2.2512.9744 2.2512s-.0588-1.1472-.0588-1.7124c0-.5688-.2784-2.7036-.2784-2.7036l-.5988.4284c-.7152.5688-1.1124 1.5756-1.1124 1.5756s.4116-.0684 1.074.1608" style="fill:#009b3a;opacity:.999;stroke-width:.7536;stroke:#000000"/>
</svg>